<svg xmlns="http://www.w3.org/2000/svg" width="720" height="250" viewBox="0 0 720 250">
<defs>
  <style>
    @import url('https://fonts.googleapis.com/css2?family=Barlow+Condensed:wght@700;900&amp;family=Share+Tech+Mono&amp;display=swap');
    .bg{fill:#0a0c08}.hd{font-family:'Barlow Condensed',sans-serif;font-weight:900}.mono{font-family:'Share Tech Mono',monospace}
    @keyframes pulse{0%,100%{opacity:1}50%{opacity:.4}}
    @keyframes scanln{0%{transform:translateY(-45px)}100%{transform:translateY(300px)}}
    @keyframes fadeUp{from{opacity:0;transform:translateY(7px)}to{opacity:1;transform:translateY(0)}}
    @keyframes blink{0%,49%{opacity:1}50%,100%{opacity:0}}
    @keyframes shine{0%,100%{opacity:.65}50%{opacity:1}}
    @keyframes flame{0%,100%{transform:scaleY(1)}50%{transform:scaleY(1.08) scaleX(.95)}}
    .pulse{animation:pulse 2s ease-in-out infinite}
    .scanln{animation:scanln 5s linear infinite;opacity:.02}
    .shine{animation:shine 3s ease-in-out infinite}
    .flame{animation:flame 1.5s ease-in-out infinite;transform-origin:center bottom}
    .fu1{animation:fadeUp .5s ease forwards;opacity:0;animation-delay:.05s}
    .fu2{animation:fadeUp .5s ease forwards;opacity:0;animation-delay:.2s}
    .fu3{animation:fadeUp .5s ease forwards;opacity:0;animation-delay:.35s}
    .fu4{animation:fadeUp .5s ease forwards;opacity:0;animation-delay:.5s}
    .fu5{animation:fadeUp .5s ease forwards;opacity:0;animation-delay:.65s}
    .fu6{animation:fadeUp .5s ease forwards;opacity:0;animation-delay:.8s}
    .blink{animation:blink 1.1s step-end infinite}
  </style>
  <clipPath id="cc2"><rect width="720" height="250" rx="3"/></clipPath>
  <filter id="goldglow"><feGaussianBlur stdDeviation="2.5" result="b"/><feMerge><feMergeNode in="b"/><feMergeNode in="SourceGraphic"/></feMerge></filter>
  <filter id="brightglow"><feGaussianBlur stdDeviation="4" result="b"/><feMerge><feMergeNode in="b"/><feMergeNode in="SourceGraphic"/></feMerge></filter>
  <filter id="softglow"><feGaussianBlur stdDeviation="7" result="b"/><feMerge><feMergeNode in="b"/><feMergeNode in="SourceGraphic"/></feMerge></filter>
  <pattern id="h2" x="0" y="0" width="8" height="8" patternUnits="userSpaceOnUse" patternTransform="rotate(45)">
    <line x1="0" y1="0" x2="0" y2="8" stroke="#e8c84a" stroke-width=".5" opacity=".05"/>
  </pattern>
  <linearGradient id="barGrad" x1="0" y1="0" x2="1" y2="0">
    <stop offset="0%" stop-color="#4a5a20"/><stop offset="55%" stop-color="#c8a830"/><stop offset="100%" stop-color="#e8c84a"/>
  </linearGradient>
  <linearGradient id="barAll" x1="0" y1="0" x2="1" y2="0">
    <stop offset="0%" stop-color="#6a5010"/><stop offset="55%" stop-color="#d4a830"/><stop offset="100%" stop-color="#ffdd66"/>
  </linearGradient>
  <linearGradient id="streakGrad" x1="0" y1="0" x2="1" y2="0">
    <stop offset="0%" stop-color="#4a5a20"/><stop offset="60%" stop-color="#c8a830"/><stop offset="100%" stop-color="#e8c84a"/>
  </linearGradient>
  <linearGradient id="bestGrad" x1="0" y1="0" x2="1" y2="0">
    <stop offset="0%" stop-color="#2a3a10"/><stop offset="100%" stop-color="#6a7a3a"/>
  </linearGradient>
  <symbol id="star" viewBox="0 0 20 20">
    <polygon points="10,1 12.9,7 19.5,7.6 14.5,12 16.2,18.5 10,15 3.8,18.5 5.5,12 0.5,7.6 7.1,7" fill="#e8c84a"/>
  </symbol>
</defs>
<g clip-path="url(#cc2)">
  <rect class="bg" width="720" height="250"/>
  <rect width="720" height="250" fill="url(#h2)"/>
  <rect width="720" height="250" fill="#182008" opacity=".08"/>
  <rect class="scanln" width="720" height="42" fill="white"/>
  <rect x="1" y="1" width="718" height="248" rx="2" fill="none" stroke="#e8c84a" stroke-width="1.5" opacity=".5"/>
  <rect x="5" y="5" width="710" height="240" rx="1" fill="none" stroke="#4a5a2a" stroke-width=".7"/>
  <rect x="8" y="8" width="704" height="234" rx="1" fill="none" stroke="#2a3a1a" stroke-width=".4"/>
  <g fill="#e8c84a">
    <rect x="1" y="1" width="22" height="3"/>          <rect x="1" y="1" width="3" height="22"/>
    <rect x="697" y="1" width="22" height="3"/>     <rect x="716" y="1" width="3" height="22"/>
    <rect x="1" y="246" width="22" height="3"/>      <rect x="1" y="227" width="3" height="22"/>
    <rect x="697" y="246" width="22" height="3"/><rect x="716" y="227" width="3" height="22"/>
  </g>
  
  <g class="fu1">
    <text class="mono" x="14" y="22" font-size="8" fill="#6a7a3a" letter-spacing=".2em">▶ COMMIT HISTORY — MONTHLY BREAKDOWN</text>
    <text class="hd" x="14" y="46" font-size="18" fill="#e8c84a" letter-spacing=".08em">DEPLOYMENT ARCHIVE · 2022–PRESENT</text>
  </g>
  <line x1="12" y1="44" x2="708" y2="44" stroke="#e8c84a" stroke-width="1" opacity=".35"/>
  <line x1="12" y1="46" x2="708" y2="46" stroke="#4a5a2a" stroke-width=".5"/>
  <g class="fu1"><text class="mono" x="86" y="50" text-anchor="middle" font-size="8" fill="#6a7a3a" letter-spacing=".1em">JAN</text><text class="mono" x="138" y="50" text-anchor="middle" font-size="8" fill="#6a7a3a" letter-spacing=".1em">FEB</text><text class="mono" x="190" y="50" text-anchor="middle" font-size="8" fill="#6a7a3a" letter-spacing=".1em">MAR</text><text class="mono" x="242" y="50" text-anchor="middle" font-size="8" fill="#6a7a3a" letter-spacing=".1em">APR</text><text class="mono" x="294" y="50" text-anchor="middle" font-size="8" fill="#6a7a3a" letter-spacing=".1em">MAY</text><text class="mono" x="346" y="50" text-anchor="middle" font-size="8" fill="#6a7a3a" letter-spacing=".1em">JUN</text><text class="mono" x="398" y="50" text-anchor="middle" font-size="8" fill="#6a7a3a" letter-spacing=".1em">JUL</text><text class="mono" x="450" y="50" text-anchor="middle" font-size="8" fill="#6a7a3a" letter-spacing=".1em">AUG</text><text class="mono" x="502" y="50" text-anchor="middle" font-size="8" fill="#6a7a3a" letter-spacing=".1em">SEP</text><text class="mono" x="554" y="50" text-anchor="middle" font-size="8" fill="#6a7a3a" letter-spacing=".1em">OCT</text><text class="mono" x="606" y="50" text-anchor="middle" font-size="8" fill="#6a7a3a" letter-spacing=".1em">NOV</text><text class="mono" x="658" y="50" text-anchor="middle" font-size="8" fill="#6a7a3a" letter-spacing=".1em">DEC</text><text class="mono" x="692" y="50" font-size="8" fill="#6a7a3a">TOT</text></g>
  <g class="fu2"><text class="mono" x="54" y="76" text-anchor="end" font-size="9" fill="#a8b878" letter-spacing=".1em">2022</text><rect x="61" y="60" width="50" height="24" rx="2" fill="#111408"/><text class="mono" x="86" y="75" text-anchor="middle" font-size="9" fill="#2a3a1a">·</text><rect x="113" y="60" width="50" height="24" rx="2" fill="#111408"/><text class="mono" x="138" y="75" text-anchor="middle" font-size="9" fill="#2a3a1a">·</text><rect x="165" y="60" width="50" height="24" rx="2" fill="#111408"/><text class="mono" x="190" y="75" text-anchor="middle" font-size="9" fill="#2a3a1a">·</text><rect x="217" y="60" width="50" height="24" rx="2" fill="#111408"/><text class="mono" x="242" y="75" text-anchor="middle" font-size="9" fill="#2a3a1a">·</text><rect x="269" y="60" width="50" height="24" rx="2" fill="#111408"/><text class="mono" x="294" y="75" text-anchor="middle" font-size="9" fill="#2a3a1a">·</text><rect x="321" y="60" width="50" height="24" rx="2" fill="#111408"/><text class="mono" x="346" y="75" text-anchor="middle" font-size="9" fill="#2a3a1a">·</text><rect x="373" y="60" width="50" height="24" rx="2" fill="#111408"/><text class="mono" x="398" y="75" text-anchor="middle" font-size="9" fill="#2a3a1a">·</text><rect x="425" y="60" width="50" height="24" rx="2" fill="#111408"/><text class="mono" x="450" y="75" text-anchor="middle" font-size="9" fill="#2a3a1a">·</text><rect x="477" y="60" width="50" height="24" rx="2" fill="#111408"/><text class="mono" x="502" y="75" text-anchor="middle" font-size="9" fill="#2a3a1a">·</text><rect x="529" y="60" width="50" height="24" rx="2" fill="#111408"/><text class="mono" x="554" y="75" text-anchor="middle" font-size="9" fill="#2a3a1a">·</text><rect x="581" y="60" width="50" height="24" rx="2" fill="#111408"/><text class="mono" x="606" y="75" text-anchor="middle" font-size="9" fill="#2a3a1a">·</text><rect x="633" y="60" width="50" height="24" rx="2" fill="#111408"/><text class="mono" x="658" y="75" text-anchor="middle" font-size="9" fill="#2a3a1a">·</text><text class="mono" x="692" y="76" font-size="9" fill="#e8c84a">0</text><text class="mono" x="54" y="104" text-anchor="end" font-size="9" fill="#a8b878" letter-spacing=".1em">2023</text><rect x="61" y="88" width="50" height="24" rx="2" fill="#111408"/><text class="mono" x="86" y="103" text-anchor="middle" font-size="9" fill="#2a3a1a">·</text><rect x="113" y="88" width="50" height="24" rx="2" fill="#111408"/><text class="mono" x="138" y="103" text-anchor="middle" font-size="9" fill="#2a3a1a">·</text><rect x="165" y="88" width="50" height="24" rx="2" fill="#111408"/><text class="mono" x="190" y="103" text-anchor="middle" font-size="9" fill="#2a3a1a">·</text><rect x="217" y="88" width="50" height="24" rx="2" fill="#111408"/><text class="mono" x="242" y="103" text-anchor="middle" font-size="9" fill="#2a3a1a">·</text><rect x="269" y="88" width="50" height="24" rx="2" fill="#111408"/><text class="mono" x="294" y="103" text-anchor="middle" font-size="9" fill="#2a3a1a">·</text><rect x="321" y="88" width="50" height="24" rx="2" fill="#111408"/><text class="mono" x="346" y="103" text-anchor="middle" font-size="9" fill="#2a3a1a">·</text><rect x="373" y="88" width="50" height="24" rx="2" fill="#111408"/><text class="mono" x="398" y="103" text-anchor="middle" font-size="9" fill="#2a3a1a">·</text><rect x="425" y="88" width="50" height="24" rx="2" fill="#111408"/><text class="mono" x="450" y="103" text-anchor="middle" font-size="9" fill="#2a3a1a">·</text><rect x="477" y="88" width="50" height="24" rx="2" fill="#111408"/><text class="mono" x="502" y="103" text-anchor="middle" font-size="9" fill="#2a3a1a">·</text><rect x="529" y="88" width="50" height="24" rx="2" fill="#111408"/><text class="mono" x="554" y="103" text-anchor="middle" font-size="9" fill="#2a3a1a">·</text><rect x="581" y="88" width="50" height="24" rx="2" fill="#111408"/><text class="mono" x="606" y="103" text-anchor="middle" font-size="9" fill="#2a3a1a">·</text><rect x="633" y="88" width="50" height="24" rx="2" fill="#111408"/><text class="mono" x="658" y="103" text-anchor="middle" font-size="9" fill="#2a3a1a">·</text><text class="mono" x="692" y="104" font-size="9" fill="#e8c84a">0</text><text class="mono" x="54" y="132" text-anchor="end" font-size="9" fill="#a8b878" letter-spacing=".1em">2024</text><rect x="61" y="116" width="50" height="24" rx="2" fill="#111408"/><text class="mono" x="86" y="131" text-anchor="middle" font-size="9" fill="#2a3a1a">·</text><rect x="113" y="116" width="50" height="24" rx="2" fill="#111408"/><text class="mono" x="138" y="131" text-anchor="middle" font-size="9" fill="#2a3a1a">·</text><rect x="165" y="116" width="50" height="24" rx="2" fill="#111408"/><text class="mono" x="190" y="131" text-anchor="middle" font-size="9" fill="#2a3a1a">·</text><rect x="217" y="116" width="50" height="24" rx="2" fill="#111408"/><text class="mono" x="242" y="131" text-anchor="middle" font-size="9" fill="#2a3a1a">·</text><rect x="269" y="116" width="50" height="24" rx="2" fill="#111408"/><text class="mono" x="294" y="131" text-anchor="middle" font-size="9" fill="#2a3a1a">·</text><rect x="321" y="116" width="50" height="24" rx="2" fill="#111408"/><text class="mono" x="346" y="131" text-anchor="middle" font-size="9" fill="#2a3a1a">·</text><rect x="373" y="116" width="50" height="24" rx="2" fill="#111408"/><text class="mono" x="398" y="131" text-anchor="middle" font-size="9" fill="#2a3a1a">·</text><rect x="425" y="116" width="50" height="24" rx="2" fill="#111408"/><text class="mono" x="450" y="131" text-anchor="middle" font-size="9" fill="#2a3a1a">·</text><rect x="477" y="116" width="50" height="24" rx="2" fill="#111408"/><text class="mono" x="502" y="131" text-anchor="middle" font-size="9" fill="#2a3a1a">·</text><rect x="529" y="116" width="50" height="24" rx="2" fill="#111408"/><text class="mono" x="554" y="131" text-anchor="middle" font-size="9" fill="#2a3a1a">·</text><rect x="581" y="116" width="50" height="24" rx="2" fill="#111408"/><text class="mono" x="606" y="131" text-anchor="middle" font-size="9" fill="#2a3a1a">·</text><rect x="633" y="116" width="50" height="24" rx="2" fill="#111408"/><text class="mono" x="658" y="131" text-anchor="middle" font-size="9" fill="#2a3a1a">·</text><text class="mono" x="692" y="132" font-size="9" fill="#e8c84a">0</text><text class="mono" x="54" y="160" text-anchor="end" font-size="9" fill="#a8b878" letter-spacing=".1em">2025</text><rect x="61" y="144" width="50" height="24" rx="2" fill="#111408"/><text class="mono" x="86" y="159" text-anchor="middle" font-size="9" fill="#2a3a1a">·</text><rect x="113" y="144" width="50" height="24" rx="2" fill="#111408"/><text class="mono" x="138" y="159" text-anchor="middle" font-size="9" fill="#2a3a1a">·</text><rect x="165" y="144" width="50" height="24" rx="2" fill="#111408"/><text class="mono" x="190" y="159" text-anchor="middle" font-size="9" fill="#2a3a1a">·</text><rect x="217" y="144" width="50" height="24" rx="2" fill="#111408"/><text class="mono" x="242" y="159" text-anchor="middle" font-size="9" fill="#2a3a1a">·</text><rect x="269" y="144" width="50" height="24" rx="2" fill="#111408"/><text class="mono" x="294" y="159" text-anchor="middle" font-size="9" fill="#2a3a1a">·</text><rect x="321" y="144" width="50" height="24" rx="2" fill="#111408"/><text class="mono" x="346" y="159" text-anchor="middle" font-size="9" fill="#2a3a1a">·</text><rect x="373" y="144" width="50" height="24" rx="2" fill="#111408"/><text class="mono" x="398" y="159" text-anchor="middle" font-size="9" fill="#2a3a1a">·</text><rect x="425" y="144" width="50" height="24" rx="2" fill="#111408"/><text class="mono" x="450" y="159" text-anchor="middle" font-size="9" fill="#2a3a1a">·</text><rect x="477" y="144" width="50" height="24" rx="2" fill="#111408"/><text class="mono" x="502" y="159" text-anchor="middle" font-size="9" fill="#2a3a1a">·</text><rect x="529" y="144" width="50" height="24" rx="2" fill="#111408"/><text class="mono" x="554" y="159" text-anchor="middle" font-size="9" fill="#2a3a1a">·</text><rect x="581" y="144" width="50" height="24" rx="2" fill="#111408"/><text class="mono" x="606" y="159" text-anchor="middle" font-size="9" fill="#2a3a1a">·</text><rect x="633" y="144" width="50" height="24" rx="2" fill="#111408"/><text class="mono" x="658" y="159" text-anchor="middle" font-size="9" fill="#2a3a1a">·</text><text class="mono" x="692" y="160" font-size="9" fill="#e8c84a">0</text><text class="mono" x="54" y="188" text-anchor="end" font-size="9" fill="#a8b878" letter-spacing=".1em">2026</text><rect x="61" y="172" width="50" height="24" rx="2" fill="#111408"/><text class="mono" x="86" y="187" text-anchor="middle" font-size="9" fill="#2a3a1a">·</text><rect x="113" y="172" width="50" height="24" rx="2" fill="#111408"/><text class="mono" x="138" y="187" text-anchor="middle" font-size="9" fill="#2a3a1a">·</text><rect x="165" y="172" width="50" height="24" rx="2" fill="#111408"/><text class="mono" x="190" y="187" text-anchor="middle" font-size="9" fill="#2a3a1a">·</text><rect x="217" y="172" width="50" height="24" rx="2" fill="#111408"/><text class="mono" x="242" y="187" text-anchor="middle" font-size="9" fill="#2a3a1a">·</text><rect x="269" y="172" width="50" height="24" rx="2" fill="#0a0c08"/><text class="mono" x="294" y="187" text-anchor="middle" font-size="9" fill="#2a3a1a">—</text><rect x="321" y="172" width="50" height="24" rx="2" fill="#0a0c08"/><text class="mono" x="346" y="187" text-anchor="middle" font-size="9" fill="#2a3a1a">—</text><rect x="373" y="172" width="50" height="24" rx="2" fill="#0a0c08"/><text class="mono" x="398" y="187" text-anchor="middle" font-size="9" fill="#2a3a1a">—</text><rect x="425" y="172" width="50" height="24" rx="2" fill="#0a0c08"/><text class="mono" x="450" y="187" text-anchor="middle" font-size="9" fill="#2a3a1a">—</text><rect x="477" y="172" width="50" height="24" rx="2" fill="#0a0c08"/><text class="mono" x="502" y="187" text-anchor="middle" font-size="9" fill="#2a3a1a">—</text><rect x="529" y="172" width="50" height="24" rx="2" fill="#0a0c08"/><text class="mono" x="554" y="187" text-anchor="middle" font-size="9" fill="#2a3a1a">—</text><rect x="581" y="172" width="50" height="24" rx="2" fill="#0a0c08"/><text class="mono" x="606" y="187" text-anchor="middle" font-size="9" fill="#2a3a1a">—</text><rect x="633" y="172" width="50" height="24" rx="2" fill="#0a0c08"/><text class="mono" x="658" y="187" text-anchor="middle" font-size="9" fill="#2a3a1a">—</text><text class="mono" x="692" y="188" font-size="9" fill="#e8c84a">0</text></g>
  <line x1="12" y1="218" x2="708" y2="218" stroke="#e8c84a" stroke-width="1" opacity=".3"/>
  <text class="mono" x="14" y="236" font-size="7" fill="#3a4a1a" letter-spacing=".13em">FOR SUPER EARTH. FOR DEMOCRACY. FOR MANAGED CODE.</text>
  <text class="mono" x="706" y="236" font-size="7" fill="#3a4a1a" text-anchor="end">Mon, 13 Apr 2026 UTC</text>
  <text class="mono blink" x="706" y="246" font-size="7" fill="#2a3a1a" text-anchor="end">█</text>
</g>
</svg>