<svg xmlns="http://www.w3.org/2000/svg" width="720" height="300" viewBox="0 0 720 300">
<defs>
  <style>
    @import url('https://fonts.googleapis.com/css2?family=Barlow+Condensed:wght@700;900&amp;family=Share+Tech+Mono&amp;display=swap');
    .bg{fill:#0a0c08}.hd{font-family:'Barlow Condensed',sans-serif;font-weight:900}.mono{font-family:'Share Tech Mono',monospace}
    @keyframes pulse{0%,100%{opacity:1}50%{opacity:.4}}
    @keyframes scanln{0%{transform:translateY(-45px)}100%{transform:translateY(350px)}}
    @keyframes fadeUp{from{opacity:0;transform:translateY(7px)}to{opacity:1;transform:translateY(0)}}
    @keyframes blink{0%,49%{opacity:1}50%,100%{opacity:0}}
    @keyframes shine{0%,100%{opacity:.65}50%{opacity:1}}
    @keyframes flame{0%,100%{transform:scaleY(1)}50%{transform:scaleY(1.08) scaleX(.95)}}
    .pulse{animation:pulse 2s ease-in-out infinite}
    .scanln{animation:scanln 5s linear infinite;opacity:.02}
    .shine{animation:shine 3s ease-in-out infinite}
    .flame{animation:flame 1.5s ease-in-out infinite;transform-origin:center bottom}
    .fu1{animation:fadeUp .5s ease forwards;opacity:0;animation-delay:.05s}
    .fu2{animation:fadeUp .5s ease forwards;opacity:0;animation-delay:.2s}
    .fu3{animation:fadeUp .5s ease forwards;opacity:0;animation-delay:.35s}
    .fu4{animation:fadeUp .5s ease forwards;opacity:0;animation-delay:.5s}
    .fu5{animation:fadeUp .5s ease forwards;opacity:0;animation-delay:.65s}
    .fu6{animation:fadeUp .5s ease forwards;opacity:0;animation-delay:.8s}
    .blink{animation:blink 1.1s step-end infinite}
  </style>
  <clipPath id="cc1"><rect width="720" height="300" rx="3"/></clipPath>
  <filter id="goldglow"><feGaussianBlur stdDeviation="2.5" result="b"/><feMerge><feMergeNode in="b"/><feMergeNode in="SourceGraphic"/></feMerge></filter>
  <filter id="brightglow"><feGaussianBlur stdDeviation="4" result="b"/><feMerge><feMergeNode in="b"/><feMergeNode in="SourceGraphic"/></feMerge></filter>
  <filter id="softglow"><feGaussianBlur stdDeviation="7" result="b"/><feMerge><feMergeNode in="b"/><feMergeNode in="SourceGraphic"/></feMerge></filter>
  <pattern id="h1" x="0" y="0" width="8" height="8" patternUnits="userSpaceOnUse" patternTransform="rotate(45)">
    <line x1="0" y1="0" x2="0" y2="8" stroke="#e8c84a" stroke-width=".5" opacity=".05"/>
  </pattern>
  <linearGradient id="barGrad" x1="0" y1="0" x2="1" y2="0">
    <stop offset="0%" stop-color="#4a5a20"/><stop offset="55%" stop-color="#c8a830"/><stop offset="100%" stop-color="#e8c84a"/>
  </linearGradient>
  <linearGradient id="barAll" x1="0" y1="0" x2="1" y2="0">
    <stop offset="0%" stop-color="#6a5010"/><stop offset="55%" stop-color="#d4a830"/><stop offset="100%" stop-color="#ffdd66"/>
  </linearGradient>
  <linearGradient id="streakGrad" x1="0" y1="0" x2="1" y2="0">
    <stop offset="0%" stop-color="#4a5a20"/><stop offset="60%" stop-color="#c8a830"/><stop offset="100%" stop-color="#e8c84a"/>
  </linearGradient>
  <linearGradient id="bestGrad" x1="0" y1="0" x2="1" y2="0">
    <stop offset="0%" stop-color="#2a3a10"/><stop offset="100%" stop-color="#6a7a3a"/>
  </linearGradient>
  <symbol id="star" viewBox="0 0 20 20">
    <polygon points="10,1 12.9,7 19.5,7.6 14.5,12 16.2,18.5 10,15 3.8,18.5 5.5,12 0.5,7.6 7.1,7" fill="#e8c84a"/>
  </symbol>
</defs>
<g clip-path="url(#cc1)">
  <rect class="bg" width="720" height="300"/>
  <rect width="720" height="300" fill="url(#h1)"/>
  <rect width="720" height="300" fill="#182008" opacity=".08"/>
  <rect class="scanln" width="720" height="42" fill="white"/>
  <rect x="1" y="1" width="718" height="298" rx="2" fill="none" stroke="#e8c84a" stroke-width="1.5" opacity=".5"/>
  <rect x="5" y="5" width="710" height="290" rx="1" fill="none" stroke="#4a5a2a" stroke-width=".7"/>
  <rect x="8" y="8" width="704" height="284" rx="1" fill="none" stroke="#2a3a1a" stroke-width=".4"/>
  <g fill="#e8c84a">
    <rect x="1" y="1" width="22" height="3"/>          <rect x="1" y="1" width="3" height="22"/>
    <rect x="697" y="1" width="22" height="3"/>     <rect x="716" y="1" width="3" height="22"/>
    <rect x="1" y="296" width="22" height="3"/>      <rect x="1" y="277" width="3" height="22"/>
    <rect x="697" y="296" width="22" height="3"/><rect x="716" y="277" width="3" height="22"/>
  </g>
  
  <g class="fu1">
    <text class="mono" x="14" y="22" font-size="8" fill="#6a7a3a" letter-spacing=".22em">▶ SUPER EARTH HIGH COMMAND — CLASSIFIED DEPLOYMENT METRICS</text>
    <text class="hd" x="14" y="48" font-size="21" fill="#e8c84a" letter-spacing=".1em" filter="url(#goldglow)">HELLDIVER COMMIT REPORT</text>
    <rect x="14" y="53" width="318" height="15" fill="#e8c84a" opacity=".07"/>
    <rect x="14" y="53" width="3" height="15" fill="#e8c84a"/>
    <use href="#star" x="18" y="54" width="12" height="12"/>
    <use href="#star" x="32" y="54" width="12" height="12"/>
    <use href="#star" x="46" y="54" width="12" height="12"/>
    <use href="#star" x="60" y="54" width="12" height="12"/>
    <use href="#star" x="74" y="54" width="12" height="12"/>
    <text class="mono shine" x="92" y="64" font-size="9" fill="#c8a830" letter-spacing=".26em">HIGH COMMAND GENERAL · Y-LUKASHEVSKYI</text>
  </g>
  <g class="fu1">
    <circle class="pulse" cx="692" cy="25" r="4" fill="#4aaa4a" filter="url(#softglow)"/>
    <text class="mono" x="700" y="21" font-size="7" fill="#4a8a4a">LIVE</text>
    <text class="mono" x="700" y="31" font-size="7" fill="#3a4a1a">FEED</text>
  </g>
  <g transform="translate(600,43)" opacity=".16">
    <rect x="0" y="0" width="100" height="18" fill="none" stroke="#e8c84a" stroke-width="1.2"/>
    <rect x="2" y="2" width="96" height="14" fill="none" stroke="#e8c84a" stroke-width=".4"/>
    <text class="hd" x="50" y="13" text-anchor="middle" font-size="10" fill="#e8c84a" letter-spacing=".2em">CLASSIFIED</text>
  </g>
  <line x1="12" y1="74" x2="708" y2="74" stroke="#e8c84a" stroke-width="1" opacity=".4" class="fu1"/>
  <line x1="12" y1="76" x2="708" y2="76" stroke="#4a5a2a" stroke-width=".5" class="fu1"/>

  <g class="fu2"><g>
    <g transform="translate(37,130) scale(1.04)" opacity=".07">
      <path d="M50,8 L32,26 L10,20 L28,33 L18,52 L50,36 L82,52 L72,33 L90,20 L68,26 Z" fill="#e8c84a"/>
      <circle cx="50" cy="22" r="9" fill="#e8c84a"/><circle cx="50" cy="22" r="4" fill="#0a0c08"/>
    </g>
    <text class="mono" x="89" y="104" text-anchor="middle" font-size="9" fill="#a8b878" letter-spacing=".15em">◈ THIS WEEK ◈</text>
    <text class="hd" x="89" y="164" text-anchor="middle" font-size="34" fill="#e8c84a" filter="url(#goldglow)">0</text>
    <text class="mono" x="89" y="178" text-anchor="middle" font-size="8" fill="#6a7a3a" letter-spacing=".2em">COMMITS DEPLOYED</text>
    <text class="mono" x="89" y="194" text-anchor="middle" font-size="7.5" fill="#884422" letter-spacing=".1em">DISGRACEFUL CONDUCT</text>
    <polygon points="55.00,204.50 56.36,208.13 60.23,208.30 57.20,210.71 58.23,214.45 55.00,212.31 51.77,214.45 52.80,210.71 49.77,208.30 53.64,208.13" fill="none" stroke="#e8c84a" stroke-width="1" opacity="0.3"/><polygon points="69.00,204.50 70.36,208.13 74.23,208.30 71.20,210.71 72.23,214.45 69.00,212.31 65.77,214.45 66.80,210.71 63.77,208.30 67.64,208.13" fill="none" stroke="#e8c84a" stroke-width="1" opacity="0.3"/><polygon points="83.00,204.50 84.36,208.13 88.23,208.30 85.20,210.71 86.23,214.45 83.00,212.31 79.77,214.45 80.80,210.71 77.77,208.30 81.64,208.13" fill="none" stroke="#e8c84a" stroke-width="1" opacity="0.3"/><polygon points="97.00,204.50 98.36,208.13 102.23,208.30 99.20,210.71 100.23,214.45 97.00,212.31 93.77,214.45 94.80,210.71 91.77,208.30 95.64,208.13" fill="none" stroke="#e8c84a" stroke-width="1" opacity="0.3"/><polygon points="111.00,204.50 112.36,208.13 116.23,208.30 113.20,210.71 114.23,214.45 111.00,212.31 107.77,214.45 108.80,210.71 105.77,208.30 109.64,208.13" fill="none" stroke="#e8c84a" stroke-width="1" opacity="0.3"/>
    <rect x="18" y="220" width="142" height="6" rx="1" fill="#181d0e"/>
    <rect x="18" y="220" width="0" height="6" rx="1" fill="url(#barGrad)">
      <animate attributeName="width" from="0" to="2" dur=".8s" begin="0.3s" fill="freeze" calcMode="spline" keySplines="0.16 1 0.3 1"/>
    </rect>
    <line x1="53.5" y1="220" x2="53.5" y2="226" stroke="#0a0c08" stroke-width="1.5"/>
    <line x1="89" y1="220" x2="89" y2="226" stroke="#0a0c08" stroke-width="1.5"/>
    <line x1="124.5" y1="220" x2="124.5" y2="226" stroke="#0a0c08" stroke-width="1.5"/>
    <text class="mono" x="18" y="238" font-size="7" fill="#3a4a1a">0</text>
    <text class="mono" x="160" y="238" font-size="7" fill="#3a4a1a" text-anchor="end">TGT:35</text>
    <text class="mono" x="89" y="238" font-size="7" fill="#3a4a1a" text-anchor="middle">0%</text>
  </g></g>
  <line x1="180" y1="82" x2="180" y2="246" stroke="#4a5a2a" stroke-width="1" class="fu1"/>
  <polygon points="180,162 185,167 180,172 175,167" fill="#e8c84a" opacity=".3" class="fu1"/>

  <g class="fu3"><g>
    <g transform="translate(217,130) scale(1.04)" opacity=".07">
      <path d="M50,8 L32,26 L10,20 L28,33 L18,52 L50,36 L82,52 L72,33 L90,20 L68,26 Z" fill="#e8c84a"/>
      <circle cx="50" cy="22" r="9" fill="#e8c84a"/><circle cx="50" cy="22" r="4" fill="#0a0c08"/>
    </g>
    <text class="mono" x="269" y="104" text-anchor="middle" font-size="9" fill="#a8b878" letter-spacing=".15em">◈ THIS MONTH ◈</text>
    <text class="hd" x="269" y="164" text-anchor="middle" font-size="34" fill="#e8c84a" filter="url(#goldglow)">0</text>
    <text class="mono" x="269" y="178" text-anchor="middle" font-size="8" fill="#6a7a3a" letter-spacing=".2em">COMMITS DEPLOYED</text>
    <text class="mono" x="269" y="194" text-anchor="middle" font-size="7.5" fill="#884422" letter-spacing=".1em">DISGRACEFUL CONDUCT</text>
    <polygon points="235.00,204.50 236.36,208.13 240.23,208.30 237.20,210.71 238.23,214.45 235.00,212.31 231.77,214.45 232.80,210.71 229.77,208.30 233.64,208.13" fill="none" stroke="#e8c84a" stroke-width="1" opacity="0.3"/><polygon points="249.00,204.50 250.36,208.13 254.23,208.30 251.20,210.71 252.23,214.45 249.00,212.31 245.77,214.45 246.80,210.71 243.77,208.30 247.64,208.13" fill="none" stroke="#e8c84a" stroke-width="1" opacity="0.3"/><polygon points="263.00,204.50 264.36,208.13 268.23,208.30 265.20,210.71 266.23,214.45 263.00,212.31 259.77,214.45 260.80,210.71 257.77,208.30 261.64,208.13" fill="none" stroke="#e8c84a" stroke-width="1" opacity="0.3"/><polygon points="277.00,204.50 278.36,208.13 282.23,208.30 279.20,210.71 280.23,214.45 277.00,212.31 273.77,214.45 274.80,210.71 271.77,208.30 275.64,208.13" fill="none" stroke="#e8c84a" stroke-width="1" opacity="0.3"/><polygon points="291.00,204.50 292.36,208.13 296.23,208.30 293.20,210.71 294.23,214.45 291.00,212.31 287.77,214.45 288.80,210.71 285.77,208.30 289.64,208.13" fill="none" stroke="#e8c84a" stroke-width="1" opacity="0.3"/>
    <rect x="198" y="220" width="142" height="6" rx="1" fill="#181d0e"/>
    <rect x="198" y="220" width="0" height="6" rx="1" fill="url(#barGrad)">
      <animate attributeName="width" from="0" to="2" dur=".8s" begin="0.5s" fill="freeze" calcMode="spline" keySplines="0.16 1 0.3 1"/>
    </rect>
    <line x1="233.5" y1="220" x2="233.5" y2="226" stroke="#0a0c08" stroke-width="1.5"/>
    <line x1="269" y1="220" x2="269" y2="226" stroke="#0a0c08" stroke-width="1.5"/>
    <line x1="304.5" y1="220" x2="304.5" y2="226" stroke="#0a0c08" stroke-width="1.5"/>
    <text class="mono" x="198" y="238" font-size="7" fill="#3a4a1a">0</text>
    <text class="mono" x="340" y="238" font-size="7" fill="#3a4a1a" text-anchor="end">TGT:130</text>
    <text class="mono" x="269" y="238" font-size="7" fill="#3a4a1a" text-anchor="middle">0%</text>
  </g></g>
  <line x1="360" y1="82" x2="360" y2="246" stroke="#4a5a2a" stroke-width="1" class="fu1"/>
  <polygon points="360,162 365,167 360,172 355,167" fill="#e8c84a" opacity=".3" class="fu1"/>

  <g class="fu4"><g>
    <g transform="translate(397,130) scale(1.04)" opacity=".07">
      <path d="M50,8 L32,26 L10,20 L28,33 L18,52 L50,36 L82,52 L72,33 L90,20 L68,26 Z" fill="#e8c84a"/>
      <circle cx="50" cy="22" r="9" fill="#e8c84a"/><circle cx="50" cy="22" r="4" fill="#0a0c08"/>
    </g>
    <text class="mono" x="449" y="104" text-anchor="middle" font-size="9" fill="#a8b878" letter-spacing=".15em">◈ THIS YEAR ◈</text>
    <text class="hd" x="449" y="164" text-anchor="middle" font-size="34" fill="#e8c84a" filter="url(#goldglow)">0</text>
    <text class="mono" x="449" y="178" text-anchor="middle" font-size="8" fill="#6a7a3a" letter-spacing=".2em">COMMITS DEPLOYED</text>
    <text class="mono" x="449" y="194" text-anchor="middle" font-size="7.5" fill="#884422" letter-spacing=".1em">DISGRACEFUL CONDUCT</text>
    <polygon points="415.00,204.50 416.36,208.13 420.23,208.30 417.20,210.71 418.23,214.45 415.00,212.31 411.77,214.45 412.80,210.71 409.77,208.30 413.64,208.13" fill="none" stroke="#e8c84a" stroke-width="1" opacity="0.3"/><polygon points="429.00,204.50 430.36,208.13 434.23,208.30 431.20,210.71 432.23,214.45 429.00,212.31 425.77,214.45 426.80,210.71 423.77,208.30 427.64,208.13" fill="none" stroke="#e8c84a" stroke-width="1" opacity="0.3"/><polygon points="443.00,204.50 444.36,208.13 448.23,208.30 445.20,210.71 446.23,214.45 443.00,212.31 439.77,214.45 440.80,210.71 437.77,208.30 441.64,208.13" fill="none" stroke="#e8c84a" stroke-width="1" opacity="0.3"/><polygon points="457.00,204.50 458.36,208.13 462.23,208.30 459.20,210.71 460.23,214.45 457.00,212.31 453.77,214.45 454.80,210.71 451.77,208.30 455.64,208.13" fill="none" stroke="#e8c84a" stroke-width="1" opacity="0.3"/><polygon points="471.00,204.50 472.36,208.13 476.23,208.30 473.20,210.71 474.23,214.45 471.00,212.31 467.77,214.45 468.80,210.71 465.77,208.30 469.64,208.13" fill="none" stroke="#e8c84a" stroke-width="1" opacity="0.3"/>
    <rect x="378" y="220" width="142" height="6" rx="1" fill="#181d0e"/>
    <rect x="378" y="220" width="0" height="6" rx="1" fill="url(#barGrad)">
      <animate attributeName="width" from="0" to="2" dur=".8s" begin="0.7s" fill="freeze" calcMode="spline" keySplines="0.16 1 0.3 1"/>
    </rect>
    <line x1="413.5" y1="220" x2="413.5" y2="226" stroke="#0a0c08" stroke-width="1.5"/>
    <line x1="449" y1="220" x2="449" y2="226" stroke="#0a0c08" stroke-width="1.5"/>
    <line x1="484.5" y1="220" x2="484.5" y2="226" stroke="#0a0c08" stroke-width="1.5"/>
    <text class="mono" x="378" y="238" font-size="7" fill="#3a4a1a">0</text>
    <text class="mono" x="520" y="238" font-size="7" fill="#3a4a1a" text-anchor="end">TGT:1040</text>
    <text class="mono" x="449" y="238" font-size="7" fill="#3a4a1a" text-anchor="middle">0%</text>
  </g></g>
  <line x1="540" y1="82" x2="540" y2="246" stroke="#c8a830" stroke-width="1.5" class="fu1"/>
  <polygon points="540,162 546,167 540,172 534,167" fill="#e8c84a" opacity=".55" class="fu1"/>

  <rect x="548" y="80" width="164" height="170" rx="2" fill="#1e1a08" opacity=".5" class="fu5"/>
  <rect x="548" y="80" width="164" height="170" rx="2" fill="none" stroke="#c8a830" stroke-width=".8" opacity=".35" class="fu5"/>
  <g class="fu5"><g>
    <g transform="translate(577,130) scale(1.04)" opacity=".07">
      <path d="M50,8 L32,26 L10,20 L28,33 L18,52 L50,36 L82,52 L72,33 L90,20 L68,26 Z" fill="#e8c84a"/>
      <circle cx="50" cy="22" r="9" fill="#e8c84a"/><circle cx="50" cy="22" r="4" fill="#0a0c08"/>
    </g>
    <text class="mono lbl" x="629" y="104" text-anchor="middle" font-size="9" fill="#a8b878" letter-spacing=".15em">◈ ALL TIME ◈</text>
    <text class="hd" x="629" y="170" text-anchor="middle" font-size="38" fill="#ffdd66" filter="url(#brightglow)">0</text>
    <text class="mono" x="629" y="186" text-anchor="middle" font-size="8" fill="#6a7a3a" letter-spacing=".2em">COMMITS DEPLOYED</text>
    <text class="mono" x="629" y="206" text-anchor="middle" font-size="7.5" fill="#6a5a2a" letter-spacing=".1em">SINCE ACCOUNT CREATION</text>
  </g></g>

  <line x1="12" y1="247" x2="708" y2="247" stroke="#e8c84a" stroke-width="1" opacity=".35" class="fu5"/>
  <line x1="12" y1="249" x2="708" y2="249" stroke="#4a5a2a" stroke-width=".5" class="fu5"/>
  <use href="#star" x="14" y="254" width="10" height="10" opacity=".25" class="fu6"/>
  <use href="#star" x="26" y="254" width="10" height="10" opacity=".25" class="fu6"/>
  <use href="#star" x="38" y="254" width="10" height="10" opacity=".25" class="fu6"/>
  <use href="#star" x="50" y="254" width="10" height="10" opacity=".25" class="fu6"/>
  <use href="#star" x="62" y="254" width="10" height="10" opacity=".25" class="fu6"/>
  <line x1="12" y1="268" x2="708" y2="268" stroke="#e8c84a" stroke-width="1" opacity=".3"/>
  <text class="mono" x="14" y="286" font-size="7" fill="#3a4a1a" letter-spacing=".13em">FOR SUPER EARTH. FOR DEMOCRACY. FOR MANAGED CODE.</text>
  <text class="mono" x="706" y="286" font-size="7" fill="#3a4a1a" text-anchor="end">Thu, 14 May 2026 UTC</text>
  <text class="mono blink" x="706" y="296" font-size="7" fill="#2a3a1a" text-anchor="end">█</text>
</g>
</svg>